<?xml version="1.0" ?><svg id="Layer_5" style="enable-background:new 0 0 62 62;" version="1.1" viewBox="0 0 62 62" xml:space="preserve" xmlns="http://www.w3.org/2000/svg" xmlns:xlink="http://www.w3.org/1999/xlink"><g><g><g><path d="M59,45H5c-2.209,0-4-1.791-4-4V11c0-2.209,1.791-4,4-4h50c2.209,0,4,1.791,4,4V45z" style="fill:#969FAA;"/></g><g><path d="M51,41H10c-0.552,0-1-0.448-1-1V12c0-0.552,0.448-1,1-1h40c0.552,0,1,0.448,1,1V41z" style="fill:#69D6F4;"/></g><g><path d="M31.48,8c-0.44,1.76-2.03,3-3.87,3H24h-2h-0.87C20.4,9.99,20,8.78,20,7.51V7c0-3.31,2.69-6,6-6h8     c3.31,0,6,2.69,6,6c0,1.49-0.55,2.91-1.53,4H38h-2h-0.02c-0.18-1.69-1.6-3-3.34-3H31.48z" style="fill:#FCD770;"/></g><g><path d="M11,55v6H7c-3.31,0-6-2.69-6-6c0-1.66,0.67-3.16,1.76-4.24C3.84,49.67,5.34,49,7,49h4V55z" style="fill:#AAB2BD;"/></g><g><path d="M17,55v2c0,2.21-1.79,4-4,4h-2v-6v-6h2c2.21,0,4,1.79,4,4V55z" style="fill:#CCD1D9;"/></g><g><path d="M42.45,41c1.97-1.86,4.63-3,7.55-3c0.34,0,0.67,0.02,1,0.05c3.31,0.29,6.19,2.05,8,4.63     c0.01,0,0.01,0,0,0.01c1.26,1.78,2,3.96,2,6.31c0,6.08-4.92,11-11,11s-11-4.92-11-11c0-1.41,0.27-2.76,0.75-4h0.01     C40.35,43.47,41.28,42.11,42.45,41z" style="fill:#FF826E;"/></g><g><path d="M24,29v3c0-0.55-0.45-1-1-1h-1c-1.1,0-2,0.9-2,2v-2.32c0-2.75,1.87-5.15,4.54-5.82L28,24l2,2l2-2     l3.46,0.86c2.67,0.67,4.54,3.07,4.54,5.82V33c0-1.1-0.9-2-2-2h-1c-0.55,0-1,0.45-1,1v-3h-6H24z" style="fill:#E6E9ED;"/></g><g><polygon points="30,29 36,29 36,32 36,36 36,41 24,41 24,36 24,32 24,29    " style="fill:#D3A06C;"/></g><g><path d="M23,31c0.55,0,1,0.45,1,1v4c0,0.55-0.45,1-1,1h-1c-1.1,0-2-0.9-2-2v-1v-1c0-1.1,0.9-2,2-2H23z" style="fill:#F0D0B4;"/></g><g><path d="M40,34v1c0,1.1-0.9,2-2,2h-1c-0.55,0-1-0.45-1-1v-4c0-0.55,0.45-1,1-1h1c1.1,0,2,0.9,2,2V34z" style="fill:#F0D0B4;"/></g><g><path d="M38,11c0.15,0,0.29,0.02,0.43,0.05c0.9,0.2,1.57,1,1.57,1.95c0,0.55-0.22,1.05-0.59,1.41     C39.05,14.78,38.55,15,38,15h-2v-3.64c0-0.12-0.01-0.24-0.02-0.36H36H38z" style="fill:#F0D0B4;"/></g><g><path d="M36,11.36V15c0,1.89-0.89,3.67-2.4,4.8l-1.2,0.9c-0.25,0.19-0.4,0.49-0.4,0.8V24l-2,2l-2-2v-2.5     c0-0.31-0.15-0.61-0.4-0.8l-1.2-0.9C24.89,18.67,24,16.89,24,15v-4h3.61c1.84,0,3.43-1.24,3.87-3h1.16c1.74,0,3.16,1.31,3.34,3     C35.99,11.12,36,11.24,36,11.36z" style="fill:#F0D0B4;"/></g><g><path d="M24,11v4h-2c-1.1,0-2-0.9-2-2c0-0.55,0.22-1.05,0.59-1.41c0.18-0.19,0.4-0.33,0.64-0.44     C21.47,11.05,21.73,11,22,11H24z" style="fill:#F0D0B4;"/></g></g><g><path d="M60,42.381V11c0-2.757-2.243-5-5-5H40.92C40.432,2.613,37.519,0,34,0h-8c-3.519,0-6.432,2.613-6.92,6H5    c-2.757,0-5,2.243-5,5v30c0,2.757,2.243,5,5,5h33.395c-0.168,0.648-0.287,1.315-0.344,2H27c-1.654,0-3,1.346-3,3v2    c0,0.552-0.449,1-1,1h-5v-1c0-2.757-2.243-5-5-5H7c-3.86,0-7,3.141-7,7s3.14,7,7,7h6c2.757,0,5-2.243,5-5v-1h5    c1.654,0,3-1.346,3-3v-2c0-0.552,0.449-1,1-1h11.051c0.511,6.15,5.67,11,11.949,11c6.617,0,12-5.383,12-12    C62,46.554,61.261,44.28,60,42.381z M2,55c0-2.757,2.243-5,5-5h3v10H7C4.243,60,2,57.757,2,55z M16,57c0,1.654-1.346,3-3,3h-1v-4    h2v-2h-2v-4h1c1.654,0,3,1.346,3,3V57z M58,11v29.081c-1.654-1.485-3.716-2.515-6-2.9V12c0-1.103-0.897-2-2-2h-9.68    c0.3-0.631,0.501-1.304,0.601-2H55C56.654,8,58,9.346,58,11z M42.089,40H37v-2h1c1.654,0,3-1.346,3-3v-1v-1v-2.315    c0-3.218-2.18-6.01-5.302-6.791L33,23.219l0-1.719l1.199-0.9c1.484-1.113,2.453-2.785,2.719-4.6H38c1.654,0,3-1.346,3-3    c0-0.352-0.072-0.686-0.184-1H50v25C46.968,37,44.204,38.139,42.089,40z M32.177,9h0.464c1.3,0,2.358,1.058,2.359,2.358V15    c0,1.565-0.747,3.061-2,4l-1.198,0.899c-0.5,0.375-0.8,0.973-0.801,1.601v2.086l-1,1l-1-1V21.5c0-0.627-0.3-1.225-0.8-1.6L27,19    c-1.253-0.939-2-2.436-2-4.001L25,12h2.612C29.643,12,31.398,10.787,32.177,9z M37,32h1c0.551,0,1,0.448,1,1v1v1    c0,0.552-0.449,1-1,1h-1V32z M38,30h-1v-2H23v2h-1c-0.336,0-0.654,0.068-0.957,0.171c0.214-2.075,1.684-3.822,3.744-4.337    l2.906-0.727L30,27.414l2.307-2.307l2.906,0.727c2.061,0.515,3.53,2.262,3.744,4.337C38.654,30.068,38.336,30,38,30z M21,34v-1    c0-0.552,0.449-1,1-1h1v4h-1c-0.551,0-1-0.448-1-1V34z M23,14h-1c-0.551,0-1-0.449-1-1s0.449-1,1-1h1L23,14z M22,16h1.081    c0.266,1.815,1.235,3.487,2.719,4.6L27,21.5v1.719l-2.698,0.674C21.18,24.674,19,27.467,19,30.685V33v1v1c0,1.654,1.346,3,3,3h1v2    H10V12h9.184C19.072,12.314,19,12.648,19,13C19,14.654,20.346,16,22,16z M25,36v-4v-2h4v2h2v-2h4v2v4v4H25V36z M37,12h1    c0.551,0,1,0.449,1,1s-0.449,1-1,1h-1V12z M21,7c0-2.757,2.243-5,5-5h8c2.757,0,5,2.243,5,5c0,1.094-0.374,2.136-1.027,3h-1.212    c-0.571-1.724-2.173-2.979-4.081-2.996l0.307-1.839l-1.973-0.329l-0.443,2.658C30.329,8.946,29.084,10,27.612,10h-2.44    C25.584,8.836,26.697,8,28,8h1V6h-1c-2.414,0-4.434,1.721-4.899,4H22h-0.326C21.242,9.246,21,8.387,21,7.515V7z M5,44    c-1.654,0-3-1.346-3-3V11c0-1.654,1.346-3,3-3h14.04c0.049,0.686,0.192,1.359,0.436,2H10c-1.103,0-2,0.897-2,2v28    c0,1.103,0.897,2,2,2h30.273c-0.451,0.625-0.842,1.293-1.168,2H5z M50,59c-5.514,0-10-4.486-10-10s4.486-10,10-10s10,4.486,10,10    S55.514,59,50,59z"/><circle cx="55" cy="11" r="1"/><circle cx="55" cy="15" r="1"/><rect height="10" width="2" x="4" y="21"/><rect height="12" width="2" x="54" y="20"/><polygon points="47,51.586 45.707,50.293 44.293,51.707 47,54.414 55.707,45.707 54.293,44.293   "/></g></g></svg>