<?xml version="1.0" encoding="UTF-8"?>
<svg width="195.79mm" height="195.79mm" clip-path="url(#presentation_clip_path)" fill-rule="evenodd" stroke-linejoin="round" stroke-width="28.222" preserveAspectRatio="xMidYMid"  viewBox="0 0 19579 19579" xml:space="preserve" xmlns="http://www.w3.org/2000/svg" xmlns:ooo="http://xml.openoffice.org/svg/export">
 <defs class="ClipPathGroup">
  <clipPath id="presentation_clip_path">
   <rect width="19579" height="19579"/>
  </clipPath>
 </defs>
 <defs class="TextShapeIndex">
  
 </defs>
 <defs class="EmbeddedBulletChars">
  
  
  
  
  
  
  
  
  
 </defs>
 
 
 <path d="m9115 11005c291-389 582-680 973-972h-5644v-975h8755s1166 3 1944 587v-8365h-12643v12641c0 1653 1264 2917 2917 2917h3698c-586-777-976-1848-976-2917h-3695v-971h3794c96-293 194-681 291-973h-4085v-972zm194-7781h3890v4862h-3890zm-4865 0h3890v973h-3890zm0 1946h3890v971h-3890zm0 1944h3890v972h-3890z" fill="#4588a9"/>
<path d="m13066 9801.9a4257.1 4248.2 0 0 0-4257.1 4248.2 4257.1 4248.2 0 0 0 4257.1 4248.2 4257.1 4248.2 0 0 0 4257.1-4248.2 4257.1 4248.2 0 0 0-4257.1-4248.2zm19.327 821.86a3412.5 3412.9 0 0 1 3412.5 3412.9 3412.5 3412.9 0 0 1-3412.5 3412.9 3412.5 3412.9 0 0 1-3412.5-3412.9 3412.5 3412.9 0 0 1 3412.5-3412.9z" fill="#4588a9" stroke-miterlimit="6.2" stroke-width="385.63" style="paint-order:stroke fill markers"/><path d="m13086 14150-1751.4 1331.6v0m1756.9-4315.8-5.672 2860" stroke="#4588a9" stroke-linecap="round" stroke-linejoin="miter" stroke-width="496.5"/></svg>
