<?xml version="1.0" ?><svg xmlns="http://www.w3.org/2000/svg" xmlns:xlink="http://www.w3.org/1999/xlink" version="1.1" viewBox="0 0 512 512" style="enable-background:new 0 0 512 512;" xml:space="preserve"><g id="_x31_4_x2C__groceries_x2C__supermarket_x2C__food_delivery_x2C__food_and_restaurant_x2C__grocery_x2C__package"><g><path style="fill:#DC5461;" d="M282.15,70.256c1.978,3.639,6.529,4.988,10.171,3.011c3.64-1.978,4.987-6.531,3.011-10.171    c-12.971-23.877-37.553-33.498-61.478-23.458c-0.96-11.974-6.199-21.772-15.87-29.688c-3.203-2.622-7.931-2.153-10.554,1.054    c-2.624,3.205-2.152,7.93,1.054,10.554c6.339,5.189,9.699,11.1,10.423,18.753c-19.716-8.702-41.642-4.462-56.416,13.988    c-12.516,15.629-17.688,38.39-14.19,62.446c2.173,14.937,7.565,29.1,15.596,40.96c2.321,3.43,6.987,4.328,10.415,2.005    c3.43-2.322,4.327-6.985,2.005-10.415c-6.769-9.997-11.323-21.999-13.172-34.708c-2.858-19.665,1.274-38.698,11.056-50.912    c12.53-15.649,31.199-16.369,47.103-4.715c2.73,2,6.376,1.856,8.917-0.036C249.092,44.849,270.59,48.974,282.15,70.256z"/><path style="fill:#DC5461;" d="M451.132,2.961c-27.102-7.714-55.301,7.971-63.012,35.087l-16.79,58.945    c-1.135,3.983,1.175,8.133,5.158,9.268c3.981,1.133,8.134-1.174,9.268-5.158l16.791-58.948    c5.44-19.131,25.34-30.215,44.476-24.767c11.023,3.143,19.665,11.33,23.688,21.594l-15.557-4.429    c-3.986-1.141-8.133,1.175-9.267,5.159c-1.135,3.983,1.176,8.133,5.159,9.267l21.967,6.254c-0.204,2.234-0.6,4.459-1.22,6.644    l-5.889,20.676l-20.682-5.89c-3.979-1.136-8.132,1.174-9.267,5.159c-1.135,3.983,1.175,8.133,5.159,9.267l20.681,5.889    l-5.821,20.437l-20.68-5.889c-3.976-1.136-8.133,1.174-9.267,5.159c-1.135,3.983,1.175,8.133,5.159,9.267l20.679,5.889    l-5.584,19.605c-1.135,3.984,1.175,8.133,5.158,9.268c3.964,1.133,8.13-1.16,9.268-5.158l25.512-89.575    C494.022,38.494,477.713,10.541,451.132,2.961z"/><path style="fill:#DC5461;" d="M120.999,286.003c-16.542,0-30,13.458-30,30v120c0,16.542,13.458,30,30,30s30-13.458,30-30v-120    C150.999,299.461,137.541,286.003,120.999,286.003z M135.999,436.003c0,8.271-6.729,15-15,15s-15-6.729-15-15v-120    c0-8.271,6.729-15,15-15s15,6.729,15,15V436.003z"/><path style="fill:#DC5461;" d="M210.999,286.003c-16.542,0-30,13.458-30,30v120c0,16.542,13.458,30,30,30s30-13.458,30-30v-120    C240.999,299.461,227.541,286.003,210.999,286.003z M225.999,436.003c0,8.271-6.729,15-15,15s-15-6.729-15-15v-120    c0-8.271,6.729-15,15-15s15,6.729,15,15V436.003z"/><path style="fill:#DC5461;" d="M300.999,286.003c-16.542,0-30,13.458-30,30v120c0,16.542,13.458,30,30,30s30-13.458,30-30v-120    C330.999,299.461,317.541,286.003,300.999,286.003z M315.999,436.003c0,8.271-6.729,15-15,15s-15-6.729-15-15v-120    c0-8.271,6.729-15,15-15s15,6.729,15,15V436.003z"/><path style="fill:#DC5461;" d="M390.999,286.003c-16.542,0-30,13.458-30,30v120c0,16.542,13.458,30,30,30s30-13.458,30-30v-120    C420.999,299.461,407.541,286.003,390.999,286.003z M405.999,436.003c0,8.271-6.729,15-15,15s-15-6.729-15-15v-120    c0-8.271,6.729-15,15-15s15,6.729,15,15V436.003z"/><g><path style="fill:#283954;" d="M510.489,230.793l-30-77.5c-1.11-2.89-3.89-4.79-6.99-4.79h-57.6l-67.97-117.19     c-6.06-10.44-17.29-16.48-29.36-15.75c-12.04,0.72-22.48,8.05-27.24,19.12c-2.14,4.99-4.06,10.05-5.73,15.18     c-1.94,5.96-3.54,12-4.78,18.08c-5.56,27.14-3.89,55.1,7.53,80.56H71.999l-12.23-14.41c-11.29-13.29-6.79-33.68,9.07-40.98     c8.65-3.97-3.53,1.62,52.32-24.05c10.45-4.81,22.63-2.25,30.28,5.96c1.68-5.11,3.88-9.92,6.57-14.31     c-11.96-9.58-28.6-11.96-43.12-5.28l-12.92,5.94l7.16-37.37c0.78-4.06-1.88-7.99-5.95-8.77s-8,1.88-8.78,5.95l-5.5,28.7     l-8.11-17.64c-1.73-3.77-6.18-5.41-9.95-3.68c-3.76,1.73-5.41,6.18-3.68,9.94l8.11,17.64l-25.36-14.5     c-3.59-2.06-8.18-0.81-10.23,2.78c-2.06,3.6-0.81,8.18,2.79,10.24l33.02,18.89l-12.92,5.93c-24.87,11.44-31.97,43.43-14.24,64.32     l3.99,4.7h-13.82c-3.1,0-5.88,1.9-6.99,4.79l-30,77.5c-1.9,4.9,1.71,10.21,6.99,10.21h30v232.5c0,20.68,16.82,37.5,37.5,37.5h360     c20.68,0,37.5-16.82,37.5-37.5v-70c0-4.14-3.36-7.5-7.5-7.5s-7.5,3.36-7.5,7.5v70c0,12.41-10.09,22.5-22.5,22.5h-360     c-12.41,0-22.5-10.09-22.5-22.5v-232.5h75.52c4.14,0,7.5-3.36,7.5-7.5s-3.36-7.5-7.5-7.5H19.449l24.19-62.5h424.72l24.19,62.5     h-333.53c-4.14,0-7.5,3.36-7.5,7.5s3.36,7.5,7.5,7.5h299.48v132.5c0,4.14,3.36,7.5,7.5,7.5s7.5-3.36,7.5-7.5v-132.5h30     C508.759,241.003,512.399,235.713,510.489,230.793z M305.039,148.503c-12.43-23.43-15.5-50.91-9.17-79.51     c0.09-0.44,0.19-0.88,0.3-1.33c0-0.02,0-0.04,0.01-0.06c2.06-8.92,5.04-17.95,8.93-26.99c5.44-12.65,22.93-13.68,29.85-1.77     l5.94,10.24l-16.16,9.37c-3.59,2.08-4.81,6.67-2.73,10.26c2.09,3.59,6.68,4.79,10.25,2.72l16.16-9.37l9.77,16.84l-16.26,9.43     c-3.58,2.08-4.8,6.67-2.73,10.25c2.08,3.58,6.67,4.8,10.25,2.72l16.26-9.43l9.96,17.16l-16.29,9.45     c-3.58,2.07-4.8,6.66-2.72,10.25c2.07,3.57,6.66,4.81,10.25,2.72l16.28-9.44l15.37,26.49H305.039z"/></g></g></g><g id="Layer_1"/></svg>