<?xml version="1.0" ?><!DOCTYPE svg  PUBLIC '-//W3C//DTD SVG 1.1//EN'  'http://www.w3.org/Graphics/SVG/1.1/DTD/svg11.dtd'><svg enable-background="new 0 0 128 128" id="Слой_1" version="1.1" viewBox="0 0 128 128" xml:space="preserve" xmlns="http://www.w3.org/2000/svg" xmlns:xlink="http://www.w3.org/1999/xlink"><path d="M99,114H19V4h80c5.5,0,10,4.5,10,10v90C109,109.5,104.5,114,99,114z" fill="#EF9F6A"/><rect fill="#FFFFFF" height="31" width="80" x="29" y="33"/><rect fill="#42ACB7" height="110" width="10" x="19" y="4"/><rect fill="#42ACB7" height="110" width="10" x="19" y="4"/><polyline fill="#F37865" points="47,114 47,124 39,124 39,114 "/><line fill="#F0EF98" x1="29" x2="29" y1="114" y2="4"/><line fill="#F0EF98" x1="109" x2="29" y1="64" y2="64"/><line fill="#F0EF98" x1="29" x2="109" y1="33" y2="33"/><line fill="#F0EF98" x1="49" x2="89" y1="48" y2="48"/><path d="M19,116.5h17.5v7.5c0,1.4,1.1,2.5,2.5,2.5h8c1.4,0,2.5-1.1,2.5-2.5v-7.5H99c6.9,0,12.5-5.6,12.5-12.5V14  c0-6.9-5.6-12.5-12.5-12.5H19c-1.4,0-2.5,1.1-2.5,2.5v110C16.5,115.4,17.6,116.5,19,116.5z M106.5,61.5l-75,0v-26h75V61.5z   M44.5,121.5h-3v-5h3V121.5z M99,111.5H31.5v-45l75,0V104C106.5,108.1,103.1,111.5,99,111.5z M106.5,14v16.5h-75v-24H99  C103.1,6.5,106.5,9.9,106.5,14z M21.5,6.5h5v105h-5V6.5z" fill="#62355C"/><path d="M49,50.5h40c1.4,0,2.5-1.1,2.5-2.5s-1.1-2.5-2.5-2.5H49c-1.4,0-2.5,1.1-2.5,2.5S47.6,50.5,49,50.5z" fill="#62355C"/></svg>